<svg width="13" height="13" viewBox="0 0 13 13" fill="none" xmlns="http://www.w3.org/2000/svg">
<g id="Icon/Fill/star">
<path id="Mask" fill-rule="evenodd" clip-rule="evenodd" d="M9.74027 11.0662C9.66078 11.0662 9.58079 11.0476 9.50734 11.0094L6.94212 9.66915L4.3774 11.0094C4.20736 11.0974 4.0021 11.0823 3.84816 10.9696C3.69321 10.8569 3.61624 10.6663 3.64894 10.4776L4.13743 7.64625L2.06473 5.64147C1.92689 5.50815 1.87708 5.30792 1.93594 5.1248C1.9948 4.94268 2.15227 4.80937 2.34243 4.7822L5.21001 4.36565L6.49186 1.78685C6.6619 1.44475 7.22284 1.44475 7.39288 1.78685L8.67474 4.36565L11.5423 4.7822C11.7325 4.80937 11.8899 4.94268 11.9488 5.1248C12.0077 5.30792 11.9579 5.50815 11.82 5.64147L9.74731 7.64625L10.2358 10.4776C10.2685 10.6663 10.191 10.8569 10.0366 10.9696C9.94905 11.034 9.84491 11.0662 9.74027 11.0662Z" fill="black"/>
<mask id="mask0_174_952" style="mask-type:alpha" maskUnits="userSpaceOnUse" x="1" y="1" width="11" height="11">
<path id="Mask_2" fill-rule="evenodd" clip-rule="evenodd" d="M9.74027 11.0662C9.66078 11.0662 9.58079 11.0476 9.50734 11.0094L6.94212 9.66915L4.3774 11.0094C4.20736 11.0974 4.0021 11.0823 3.84816 10.9696C3.69321 10.8569 3.61624 10.6663 3.64894 10.4776L4.13743 7.64625L2.06473 5.64147C1.92689 5.50815 1.87708 5.30792 1.93594 5.1248C1.9948 4.94268 2.15227 4.80937 2.34243 4.7822L5.21001 4.36565L6.49186 1.78685C6.6619 1.44475 7.22284 1.44475 7.39288 1.78685L8.67474 4.36565L11.5423 4.7822C11.7325 4.80937 11.8899 4.94268 11.9488 5.1248C12.0077 5.30792 11.9579 5.50815 11.82 5.64147L9.74731 7.64625L10.2358 10.4776C10.2685 10.6663 10.191 10.8569 10.0366 10.9696C9.94905 11.034 9.84491 11.0662 9.74027 11.0662Z" fill="white"/>
</mask>
<g mask="url(#mask0_174_952)">
<g id="&#240;&#159;&#142;&#168; Color">
<rect id="Base" x="0.905254" y="0.500977" width="12.074" height="12.074" fill="#00AC4E"/>
</g>
</g>
</g>
</svg>
